<svg width="20" height="20" viewBox="0 0 20 20" fill="none" xmlns="http://www.w3.org/2000/svg">
<path d="M16.6419 8.33301H3.30859V14.9997C3.30859 17.4997 4.14193 18.333 6.64193 18.333H13.3086C15.8086 18.333 16.6419 17.4997 16.6419 14.9997V8.33301Z" stroke="#171717" stroke-width="1.5" stroke-miterlimit="10" stroke-linecap="round" stroke-linejoin="round"/>
<path d="M17.9173 5.83366V6.66699C17.9173 7.58366 17.4757 8.33366 16.2507 8.33366H3.75065C2.47565 8.33366 2.08398 7.58366 2.08398 6.66699V5.83366C2.08398 4.91699 2.47565 4.16699 3.75065 4.16699H16.2507C17.4757 4.16699 17.9173 4.91699 17.9173 5.83366Z" stroke="#171717" stroke-width="1.5" stroke-miterlimit="10" stroke-linecap="round" stroke-linejoin="round"/>
<path d="M9.70096 4.16686H5.10096C4.81763 3.85853 4.82596 3.38353 5.12596 3.08353L6.30929 1.9002C6.61763 1.59186 7.12596 1.59186 7.43429 1.9002L9.70096 4.16686Z" stroke="#171717" stroke-width="1.5" stroke-miterlimit="10" stroke-linecap="round" stroke-linejoin="round"/>
<path d="M14.891 4.16686H10.291L12.5577 1.9002C12.866 1.59186 13.3743 1.59186 13.6827 1.9002L14.866 3.08353C15.166 3.38353 15.1743 3.85853 14.891 4.16686Z" stroke="#171717" stroke-width="1.5" stroke-miterlimit="10" stroke-linecap="round" stroke-linejoin="round"/>
<path d="M7.44922 8.33301V12.6163C7.44922 13.283 8.18255 13.6747 8.74089 13.3163L9.52422 12.7997C9.80755 12.6163 10.1659 12.6163 10.4409 12.7997L11.1826 13.2997C11.7326 13.6663 12.4742 13.2747 12.4742 12.608V8.33301H7.44922Z" stroke="#171717" stroke-width="1.5" stroke-miterlimit="10" stroke-linecap="round" stroke-linejoin="round"/>
</svg>
