<svg width="32" height="32" viewBox="0 0 32 32" fill="none" xmlns="http://www.w3.org/2000/svg">
<path d="M18.6667 14.6656H17.3327V13.3326C17.3194 12.988 17.1731 12.662 16.9246 12.4229C16.676 12.1838 16.3446 12.0503 15.9997 12.0503C15.6549 12.0503 15.3234 12.1838 15.0749 12.4229C14.8263 12.662 14.6801 12.988 14.6667 13.3326V14.6656H13.3327C12.979 14.6656 12.6399 14.8061 12.3898 15.0562C12.1397 15.3063 11.9992 15.6455 11.9992 15.9991C11.9992 16.3528 12.1397 16.692 12.3898 16.9421C12.6399 17.1921 12.979 17.3326 13.3327 17.3326H14.6667V18.6666C14.6667 19.0202 14.8072 19.3592 15.0571 19.6092C15.3071 19.8592 15.6462 19.9996 15.9997 19.9996C16.3532 19.9996 16.6923 19.8592 16.9423 19.6092C17.1923 19.3592 17.3327 19.0202 17.3327 18.6666V17.3326H18.6667C19.0202 17.3326 19.3593 17.1922 19.6093 16.9422C19.8593 16.6922 19.9997 16.3532 19.9997 15.9996C19.9997 15.6461 19.8593 15.307 19.6093 15.0571C19.3593 14.8071 19.0202 14.6656 18.6667 14.6656ZM26.8797 6.66563C25.4579 5.25873 23.58 4.40632 21.585 4.26219C19.5899 4.11807 17.609 4.69171 15.9997 5.87963C14.3033 4.61782 12.1917 4.04565 10.0903 4.27835C7.98885 4.51105 6.05364 5.53134 4.67435 7.13375C3.29506 8.73616 2.57415 10.8017 2.65678 12.9143C2.73942 15.027 3.61947 17.0299 5.11972 18.5196L13.1197 26.5866C13.8697 27.3356 14.8863 27.7563 15.9462 27.7563C17.0061 27.7563 18.0227 27.3356 18.7727 26.5866L26.7727 18.5196C27.5606 17.7499 28.1886 16.832 28.6206 15.8187C29.0526 14.8055 29.2801 13.7168 29.2901 12.6154C29.3 11.5139 29.0922 10.4214 28.6785 9.40047C28.2649 8.37958 27.6536 7.44951 26.8797 6.66563ZM24.9997 16.6136L16.9997 24.6136C16.8757 24.7384 16.7282 24.8373 16.5657 24.9049C16.4033 24.9724 16.2291 25.0072 16.0532 25.0072C15.8773 25.0072 15.7031 24.9724 15.5407 24.9049C15.3783 24.8373 15.2308 24.7384 15.1067 24.6136L7.10672 16.6136C6.06106 15.5448 5.47553 14.1089 5.47553 12.6136C5.47553 11.1183 6.06106 9.68251 7.10672 8.61364C8.17221 7.56154 9.60932 6.97159 11.1067 6.97159C12.6041 6.97159 14.0412 7.56154 15.1067 8.61364C15.2307 8.73848 15.3782 8.83755 15.5406 8.90517C15.7031 8.97278 15.8773 9.00758 16.0532 9.00758C16.2292 9.00758 16.4034 8.97278 16.5658 8.90517C16.7283 8.83755 16.8757 8.73848 16.9997 8.61364C18.0652 7.56154 19.5023 6.97159 20.9997 6.97159C22.4971 6.97159 23.9342 7.56154 24.9997 8.61364C26.0535 9.68371 26.6442 11.1253 26.6442 12.6271C26.6442 14.129 26.0535 15.5706 24.9997 16.6406V16.6136Z" fill="black"/>
</svg>
