<svg width="33" height="32" viewBox="0 0 33 32" fill="none" xmlns="http://www.w3.org/2000/svg">
<path d="M16.667 4C13.1309 4.00027 9.73979 5.40507 7.23942 7.90544C4.73906 10.4058 3.33425 13.797 3.33398 17.333V26.667C3.33398 27.0205 3.47443 27.3596 3.72441 27.6096C3.9744 27.8596 4.31345 28 4.66698 28H8.66698C9.72785 28 10.7453 27.5786 11.4954 26.8284C12.2456 26.0783 12.667 25.0609 12.667 24V21.333C12.667 20.2721 12.2456 19.2547 11.4954 18.5046C10.7453 17.7544 9.72785 17.333 8.66698 17.333H5.99998C5.99998 14.5039 7.12383 11.7907 9.12428 9.79029C11.1247 7.78984 13.8379 6.666 16.667 6.666C19.496 6.666 22.2092 7.78984 24.2097 9.79029C26.2101 11.7907 27.334 14.5039 27.334 17.333H24.667C23.6061 17.333 22.5887 17.7544 21.8386 18.5046C21.0884 19.2547 20.667 20.2721 20.667 21.333V24C20.667 25.0609 21.0884 26.0783 21.8386 26.8284C22.5887 27.5786 23.6061 28 24.667 28H28.667C29.0204 27.9997 29.3593 27.8592 29.6093 27.6093C29.8592 27.3594 29.9997 27.0205 30 26.667V17.333C29.9997 13.797 28.5949 10.4058 26.0945 7.90544C23.5942 5.40507 20.203 4.00027 16.667 4ZM8.66698 20C9.02044 20.0003 9.35934 20.1408 9.60927 20.3907C9.85919 20.6406 9.99972 20.9795 9.99998 21.333V24C9.99998 24.3535 9.85954 24.6926 9.60956 24.9426C9.35957 25.1926 9.02052 25.333 8.66698 25.333H5.99998V20H8.66698ZM27.334 25.333H24.667C24.3135 25.333 23.9744 25.1926 23.7244 24.9426C23.4744 24.6926 23.334 24.3535 23.334 24V21.333C23.3342 20.9795 23.4748 20.6406 23.7247 20.3907C23.9746 20.1408 24.3135 20.0003 24.667 20H27.334V25.333Z" fill="black"/>
</svg>
