<svg width="33" height="32" viewBox="0 0 33 32" fill="none" xmlns="http://www.w3.org/2000/svg">
<path d="M29.7135 13.6674L17.7135 3.00037C17.4702 2.78674 17.1574 2.66895 16.8335 2.66895C16.5097 2.66895 16.1969 2.78674 15.9535 3.00037L3.95354 13.6674C3.75049 13.8463 3.60673 14.0829 3.54138 14.3456C3.47604 14.6082 3.4922 14.8846 3.58773 15.1378C3.68326 15.3911 3.85362 15.6092 4.07616 15.7633C4.2987 15.9174 4.56287 16.0001 4.83354 16.0004H6.16654V28.0004C6.16654 28.1755 6.20105 28.3489 6.26811 28.5107C6.33516 28.6725 6.43343 28.8195 6.55732 28.9433C6.68121 29.0671 6.82827 29.1653 6.99012 29.2322C7.15196 29.2991 7.3254 29.3335 7.50054 29.3334H26.1665C26.3417 29.3335 26.5151 29.2991 26.677 29.2322C26.8388 29.1653 26.9859 29.0671 27.1098 28.9433C27.2336 28.8195 27.3319 28.6725 27.399 28.5107C27.466 28.3489 27.5005 28.1755 27.5005 28.0004V16.0004H28.8335C29.104 15.9995 29.3678 15.9166 29.5899 15.7624C29.8121 15.6082 29.9822 15.3902 30.0777 15.1372C30.1731 14.8842 30.1894 14.6081 30.1244 14.3456C30.0593 14.0831 29.9161 13.8466 29.7135 13.6674ZM18.1665 26.6674H15.5005V22.6674C15.5005 22.3138 15.641 21.9748 15.891 21.7248C16.141 21.4748 16.48 21.3344 16.8335 21.3344C17.1871 21.3344 17.5261 21.4748 17.7761 21.7248C18.0261 21.9748 18.1665 22.3138 18.1665 22.6674V26.6674ZM24.8335 26.6674H20.8335V22.6674C20.8335 21.6065 20.4121 20.5891 19.662 19.8389C18.9118 19.0888 17.8944 18.6674 16.8335 18.6674C15.7727 18.6674 14.7553 19.0888 14.0051 19.8389C13.255 20.5891 12.8335 21.6065 12.8335 22.6674V26.6674H8.83354V16.0004H24.8335V26.6674ZM8.34054 13.3334L16.8335 5.78737L25.3265 13.3334H8.34054Z" fill="black"/>
</svg>
