<svg width="33" height="32" viewBox="0 0 33 32" fill="none" xmlns="http://www.w3.org/2000/svg">
<path d="M9.83397 13.333C9.4803 13.333 9.14112 13.4735 8.89104 13.7236C8.64096 13.9736 8.50047 14.3128 8.50047 14.6665C8.50047 15.0202 8.64096 15.3593 8.89104 15.6094C9.14112 15.8595 9.4803 16 9.83397 16C10.1876 16 10.5268 15.8595 10.7769 15.6094C11.027 15.3593 11.1675 15.0202 11.1675 14.6665C11.1675 14.3128 11.027 13.9736 10.7769 13.7236C10.5268 13.4735 10.1876 13.333 9.83397 13.333ZM25.834 7.99999H24.501V3.99999C24.501 3.64646 24.3605 3.3074 24.1105 3.05742C23.8606 2.80743 23.5215 2.66699 23.168 2.66699H9.83397C9.48044 2.66699 9.14138 2.80743 8.8914 3.05742C8.64141 3.3074 8.50097 3.64646 8.50097 3.99999V7.99999H7.16797C6.1071 7.99999 5.08969 8.42142 4.33954 9.17157C3.5894 9.92171 3.16797 10.9391 3.16797 12V20C3.16797 21.0609 3.5894 22.0783 4.33954 22.8284C5.08969 23.5786 6.1071 24 7.16797 24H8.50097V28C8.50097 28.3535 8.64141 28.6926 8.8914 28.9426C9.14138 29.1926 9.48044 29.333 9.83397 29.333H23.168C23.5215 29.333 23.8606 29.1926 24.1105 28.9426C24.3605 28.6926 24.501 28.3535 24.501 28V24H25.834C26.8948 24 27.9123 23.5786 28.6624 22.8284C29.4125 22.0783 29.834 21.0609 29.834 20V12C29.834 10.9391 29.4125 9.92171 28.6624 9.17157C27.9123 8.42142 26.8948 7.99999 25.834 7.99999ZM11.168 5.33299H21.834V7.99999H11.168V5.33299ZM21.834 26.667H11.168V21.333H21.834V26.667ZM27.168 20C27.168 20.1751 27.1335 20.3485 27.0664 20.5103C26.9994 20.6721 26.9011 20.8191 26.7772 20.9429C26.6533 21.0667 26.5062 21.1649 26.3444 21.2318C26.1826 21.2987 26.0091 21.3331 25.834 21.333H24.501V20C24.501 19.6465 24.3605 19.3074 24.1105 19.0574C23.8606 18.8074 23.5215 18.667 23.168 18.667H9.83397C9.48044 18.667 9.14138 18.8074 8.8914 19.0574C8.64141 19.3074 8.50097 19.6465 8.50097 20V21.333H7.16797C6.81434 21.333 6.47519 21.1926 6.22504 20.9426C5.9749 20.6927 5.83423 20.3536 5.83397 20V12C5.83397 11.8249 5.86848 11.6514 5.93553 11.4896C6.00258 11.3279 6.10086 11.1809 6.22475 11.0571C6.34864 10.9333 6.4957 10.8351 6.65754 10.7682C6.81939 10.7012 6.99283 10.6669 7.16797 10.667H25.834C26.0091 10.6669 26.1826 10.7012 26.3444 10.7682C26.5062 10.8351 26.6533 10.9333 26.7772 11.0571C26.9011 11.1809 26.9994 11.3279 27.0664 11.4896C27.1335 11.6514 27.168 11.8249 27.168 12V20Z" fill="black"/>
</svg>
