<svg width="33" height="32" viewBox="0 0 33 32" fill="none" xmlns="http://www.w3.org/2000/svg">
<path d="M31.082 9.33301L21.748 16L31.082 22.667V9.33301Z" stroke="black" stroke-width="2.5" stroke-linecap="round" stroke-linejoin="round"/>
<path d="M19.082 6.66699H4.41505C3.70789 6.66699 3.02968 6.94784 2.52955 7.44778C2.02942 7.94773 1.74831 8.62583 1.74805 9.33299V22.667C1.74831 23.3742 2.02942 24.0523 2.52955 24.5522C3.02968 25.0521 3.70789 25.333 4.41505 25.333H19.082C19.789 25.3327 20.467 25.0518 20.9669 24.5518C21.4668 24.0519 21.7478 23.374 21.748 22.667V9.33299C21.7478 8.62601 21.4668 7.94805 20.9669 7.44814C20.467 6.94822 19.789 6.66726 19.082 6.66699Z" stroke="black" stroke-width="2.5" stroke-linecap="round" stroke-linejoin="round"/>
</svg>
