<svg width="33" height="32" viewBox="0 0 33 32" fill="none" xmlns="http://www.w3.org/2000/svg">
<path d="M24.9955 6.22331L24.9814 6.23743C24.4261 5.68119 23.6788 5.24731 22.8007 5.00354C22.5971 4.93764 22.3874 4.89224 22.1748 4.86802C22.028 4.83978 21.8642 4.82754 21.7136 4.81343C21.5367 4.80025 21.3748 4.78613 21.1979 4.78613H19.4106V4.78896H18.715C18.715 6.06519 17.6892 7.10237 16.4299 7.10237C15.1659 7.10237 14.1409 6.06519 14.1409 4.78896H13.388V4.78613H12.0327C11.8454 4.78613 11.6402 4.80025 11.451 4.81437C11.3033 4.82754 11.1395 4.84072 10.9899 4.86802C10.7734 4.90849 10.5682 4.94896 10.3677 5.00354C9.36445 5.24731 8.4948 5.76307 7.92633 6.44072L1.52539 12.5132L5.94516 17.1908H5.9621L7.73621 15.4967V19.6172H7.74468V25.7687C7.74468 26.565 8.39221 27.2144 9.19033 27.2144H23.9122C24.7094 27.2144 25.3579 26.565 25.3579 25.7687V19.6172H25.3607V15.4421L25.4294 15.4958V15.5099L27.2082 17.1908L31.643 12.5132L24.9955 6.22331ZM27.1527 15.2803L24.0732 12.3654V12.3513L24.0044 12.2977V17.9786H24.0016L23.9141 25.86L9.09998 25.7706V17.9767H9.09245V12.3513L6.0148 15.2793H6.00068L3.43692 12.5687H3.45104L8.11645 8.13484L8.14374 8.12072L8.84868 7.48354C9.35127 6.9546 9.93386 6.48025 10.7997 6.29013C10.9381 6.24966 11.0727 6.22237 11.2073 6.20919C11.3155 6.1819 11.4237 6.16872 11.5461 6.16872C11.708 6.1546 11.8717 6.14049 12.0327 6.14049H13.0492C13.5866 7.49578 14.8948 8.45672 16.4299 8.45672C17.9612 8.45672 19.2703 7.49672 19.8077 6.14143H21.1979C21.3484 6.14143 21.484 6.14143 21.6195 6.16872C21.7419 6.1819 21.8501 6.19602 21.9583 6.20919L22.3668 6.29013C23.003 6.46707 23.5583 6.75131 23.9536 7.14472L24.1277 7.30754L24.3207 7.48354L25.0266 8.12072L25.0548 8.13484L29.7193 12.5678L27.1527 15.2803Z" fill="black" stroke="black" stroke-width="1.25459"/>
</svg>
