<svg width="33" height="32" viewBox="0 0 33 32" fill="none" xmlns="http://www.w3.org/2000/svg">
<path d="M22.5983 15.4487C23.128 15.4553 23.6538 15.3557 24.1444 15.1558C24.6351 14.9559 25.0808 14.6598 25.4551 14.2849L29.198 10.5419C29.4444 10.2941 29.5827 9.95886 29.5827 9.60945C29.5827 9.26003 29.4444 8.92482 29.198 8.67702C29.0751 8.55305 28.9288 8.45466 28.7676 8.38751C28.6066 8.32037 28.4336 8.28579 28.2591 8.28579C28.0844 8.28579 27.9116 8.32037 27.7504 8.38751C27.5892 8.45466 27.443 8.55305 27.32 8.67702L23.5374 12.4068C23.4144 12.5307 23.2682 12.6291 23.107 12.6963C22.9458 12.7634 22.773 12.798 22.5983 12.798C22.4238 12.798 22.2508 12.7634 22.0896 12.6963C21.9286 12.6291 21.7822 12.5307 21.6592 12.4068L26.3412 7.73797C26.4646 7.61465 26.5624 7.46825 26.6291 7.30713C26.6959 7.14601 26.7303 6.97331 26.7303 6.79893C26.7303 6.62453 26.6959 6.45183 26.6291 6.29071C26.5624 6.12959 26.4646 5.98319 26.3412 5.85987C26.2179 5.73655 26.0715 5.63874 25.9104 5.57199C25.7494 5.50526 25.5766 5.47091 25.4022 5.47091C25.2279 5.47091 25.0551 5.50526 24.894 5.57199C24.7328 5.63874 24.5866 5.73655 24.4632 5.85987L19.7944 10.5419C19.548 10.2941 19.4098 9.95886 19.4098 9.60945C19.4098 9.26003 19.548 8.92482 19.7944 8.67702L23.5374 4.93406C23.6607 4.81074 23.7586 4.66434 23.8252 4.50322C23.892 4.34209 23.9263 4.16941 23.9263 3.99501C23.9263 3.82061 23.892 3.64791 23.8252 3.48679C23.7586 3.32567 23.6607 3.17927 23.5374 3.05595C23.414 2.93265 23.2676 2.83482 23.1066 2.76809C22.9454 2.70134 22.7727 2.66699 22.5983 2.66699C22.4239 2.66699 22.2512 2.70134 22.0902 2.76809C21.929 2.83482 21.7826 2.93265 21.6592 3.05595L17.9163 6.79893C17.1732 7.54289 16.7559 8.55137 16.7559 9.60283C16.7559 10.6543 17.1732 11.6628 17.9163 12.4068L16.197 14.1129L5.25899 3.13531L5.12674 3.05595C5.05913 2.99697 4.98341 2.94798 4.9019 2.91047L4.66382 2.81789L4.50511 2.71209H4.41253H4.14801C4.06915 2.69947 3.98879 2.69947 3.90994 2.71209C3.82987 2.74122 3.75422 2.78129 3.6851 2.83111L3.47349 2.96338H3.3809L3.30155 3.09563C3.24557 3.16547 3.19682 3.24081 3.15606 3.32047C3.11733 3.40113 3.08633 3.48527 3.06347 3.57178C3.06347 3.57178 3.06347 3.66435 3.06347 3.71726C2.74253 5.95433 2.94715 8.23539 3.66113 10.3796C4.37511 12.5238 5.57879 14.4722 7.17677 16.0703L10.6684 19.5489L3.51317 26.6909C3.38919 26.8138 3.29081 26.9601 3.22366 27.1213C3.15651 27.2825 3.12194 27.4553 3.12194 27.6299C3.12194 27.8045 3.15651 27.9774 3.22366 28.1386C3.29081 28.2997 3.38919 28.4459 3.51317 28.569C3.63675 28.6915 3.78331 28.7885 3.94446 28.8543C4.10559 28.9202 4.27815 28.9535 4.45221 28.9525C4.62627 28.9535 4.79882 28.9202 4.95997 28.8543C5.12111 28.7885 5.26767 28.6915 5.39126 28.569L13.4194 20.6598L17.1624 16.9169L19.8076 14.2717C20.5456 15.0175 21.5491 15.4409 22.5983 15.4487ZM12.4804 17.8559L9.00197 14.3642C7.09537 12.4315 5.90158 9.9087 5.6161 7.20893L14.3586 15.9381L12.4804 17.8559ZM20.7335 18.6098C20.4844 18.359 20.1459 18.2174 19.7924 18.2161C19.439 18.2149 19.0995 18.3541 18.8487 18.6031C18.5979 18.8522 18.4563 19.1907 18.4551 19.5441C18.4539 19.8975 18.5931 20.237 18.8422 20.4878L27.1746 28.8202C27.4271 29.0501 27.759 29.1734 28.1003 29.1641C28.2744 29.1651 28.447 29.1318 28.608 29.0659C28.7692 29.0001 28.9158 28.9031 29.0394 28.7806C29.1634 28.6577 29.2618 28.5113 29.3288 28.3502C29.396 28.189 29.4306 28.0161 29.4306 27.8415C29.4306 27.6669 29.396 27.4941 29.3288 27.3329C29.2618 27.1717 29.1634 27.0254 29.0394 26.9025L20.7335 18.6098Z" fill="black"/>
</svg>
