<svg width="33" height="32" viewBox="0 0 33 32" fill="none" xmlns="http://www.w3.org/2000/svg">
<path fill-rule="evenodd" clip-rule="evenodd" d="M17.6037 5.12881C17.3785 5.07475 17.1239 5.06618 16.1799 5.06618H12.3258C11.2957 5.06618 10.6033 5.06722 10.0698 5.11079C9.552 5.15311 9.30245 5.22878 9.1367 5.31323C8.71021 5.53054 8.36345 5.8773 8.14613 6.30379C8.06168 6.46955 7.98601 6.7191 7.9437 7.23695C7.90012 7.77037 7.89909 8.46275 7.89909 9.49285V21.9728C7.89909 23.003 7.90012 23.6954 7.9437 24.2287C7.98601 24.7466 8.06168 24.9962 8.14613 25.1619C8.36345 25.5884 8.71021 25.9351 9.1367 26.1524C9.30245 26.237 9.552 26.3126 10.0698 26.3548C10.6033 26.3984 11.2957 26.3995 12.3258 26.3995H20.0057C21.0359 26.3995 21.7283 26.3984 22.2616 26.3548C22.7795 26.3126 23.0291 26.237 23.1948 26.1524C23.6213 25.9351 23.968 25.5884 24.1853 25.1619C24.2699 24.9962 24.3455 24.7466 24.3877 24.2287C24.4313 23.6954 24.4324 23.003 24.4324 21.9728V13.3187C24.4324 12.3747 24.4239 12.12 24.3697 11.8949C24.3143 11.6636 24.2227 11.4425 24.0984 11.2397C23.9773 11.0422 23.8033 10.8561 23.1359 10.1886L19.31 6.36271C18.6425 5.69522 18.4564 5.52119 18.2589 5.40019C18.0561 5.27591 17.8349 5.18433 17.6037 5.12881ZM16.3095 2.39946C17.0639 2.39903 17.6551 2.3987 18.2263 2.53582C18.7296 2.65667 19.2108 2.85599 19.6523 3.12649C20.1531 3.43339 20.5709 3.85167 21.104 4.38543C21.1341 4.41562 21.1647 4.44617 21.1956 4.4771L25.0215 8.30297C25.0524 8.33389 25.0829 8.36441 25.1132 8.39455C25.6469 8.92771 26.0652 9.34553 26.3721 9.84635C26.6425 10.2878 26.8419 10.769 26.9628 11.2724C27.0999 11.8435 27.0996 12.4347 27.0991 13.1891C27.0991 13.2318 27.0991 13.275 27.0991 13.3187V22.027C27.0991 22.989 27.0991 23.791 27.0456 24.4459C26.9899 25.1287 26.8693 25.7682 26.5613 26.3726C26.0884 27.3008 25.3337 28.0555 24.4055 28.5284C23.8011 28.8364 23.1616 28.957 22.4788 29.0127C21.8239 29.0662 21.0219 29.0662 20.0599 29.0662H12.2716C11.3096 29.0662 10.5076 29.0662 9.8527 29.0127C9.16994 28.957 8.5304 28.8364 7.92606 28.5284C6.9978 28.0555 6.24309 27.3008 5.77012 26.3726C5.4622 25.7682 5.34168 25.1287 5.28589 24.4459C5.23238 23.791 5.2324 22.989 5.23242 22.0271V9.43863C5.2324 8.47666 5.23238 7.67473 5.28589 7.01979C5.34168 6.33703 5.4622 5.69749 5.77012 5.09315C6.24309 4.16489 6.9978 3.41019 7.92606 2.93721C8.5304 2.62929 9.16994 2.50877 9.8527 2.45299C10.5076 2.39947 11.3096 2.39949 12.2715 2.39951H16.1799C16.2236 2.39951 16.2668 2.39949 16.3095 2.39946Z" fill="black"/>
<path d="M10.832 18.837C10.832 15.9997 12.5814 13.333 16.1014 13.333C19.7067 13.333 21.328 15.957 21.328 18.517C21.328 18.8797 21.3067 19.1997 21.2854 19.413H13.3494C13.5414 21.141 14.6507 22.2503 16.3147 22.2503C17.6587 22.2503 18.5334 21.6957 18.8107 20.6717H21.3707C20.9654 22.9543 18.96 24.4263 16.3147 24.4263C12.7947 24.4263 10.832 21.653 10.832 18.837ZM13.4134 17.685H18.704C18.5974 16.3197 17.6587 15.2957 16.1014 15.2957C14.6294 15.2957 13.6907 16.0637 13.4134 17.685Z" fill="black"/>
</svg>
