<svg width="33" height="32" viewBox="0 0 33 32" fill="none" xmlns="http://www.w3.org/2000/svg">
<path d="M29.5835 6.77294C29.5842 5.96009 29.3438 5.16531 28.8925 4.48921C28.4413 3.81311 27.7996 3.28612 27.0487 2.97495C26.2977 2.66379 25.4714 2.58245 24.6742 2.74124C23.877 2.90002 23.1449 3.29179 22.5705 3.86694L18.8235 7.61294L10.1705 4.73294C9.94013 4.66055 9.69445 4.65209 9.45968 4.70845C9.2249 4.76481 9.00984 4.88388 8.83747 5.05294L5.66347 8.19994C5.51297 8.35203 5.4013 8.53811 5.33789 8.74246C5.27448 8.94681 5.26119 9.16342 5.29914 9.37399C5.3371 9.58456 5.42518 9.78289 5.55596 9.95224C5.68673 10.1216 5.85634 10.257 6.05047 10.3469L12.9575 13.4799L9.49047 16.9469L7.21047 15.7999C6.96423 15.6667 6.68233 15.6144 6.40469 15.6503C6.12704 15.6862 5.86773 15.8085 5.66347 15.9999L3.30347 18.4129C3.05529 18.6628 2.91602 19.0007 2.91602 19.3529C2.91602 19.7051 3.05529 20.043 3.30347 20.2929L11.9575 28.9469C12.2072 29.1954 12.5452 29.3348 12.8975 29.3348C13.2497 29.3348 13.5877 29.1954 13.8375 28.9469L16.2505 26.5869C16.4505 26.3888 16.5827 26.1324 16.6282 25.8545C16.6736 25.5766 16.63 25.2915 16.5035 25.0399L15.3575 22.7599L18.8235 19.2929L21.9575 26.1999C22.0475 26.3939 22.1828 26.5633 22.3521 26.694C22.5214 26.8246 22.7196 26.9126 22.93 26.9506C23.1404 26.9885 23.3569 26.9753 23.5611 26.912C23.7654 26.8487 23.9514 26.7372 24.1035 26.5869L27.2505 23.4399C27.4195 23.2676 27.5386 23.0525 27.595 22.8177C27.6513 22.583 27.6428 22.3373 27.5705 22.1069L24.6905 13.4529L28.3835 9.67994C28.7664 9.29928 29.0697 8.84619 29.2757 8.34709C29.4818 7.848 29.5864 7.31288 29.5835 6.77294ZM26.4905 7.79994L22.1705 12.1199C22.0014 12.2923 21.8823 12.5074 21.826 12.7422C21.7696 12.9769 21.7781 13.2226 21.8505 13.4529L24.7305 22.0929L23.5305 23.2929L20.3975 16.3999C20.3081 16.2034 20.1724 16.0316 20.002 15.8991C19.8316 15.7666 19.6315 15.6775 19.419 15.6395C19.2066 15.6014 18.988 15.6155 18.7822 15.6806C18.5764 15.7456 18.3895 15.8597 18.2375 16.0129L12.7435 21.5599C12.5463 21.7569 12.4159 22.0108 12.3705 22.2858C12.3251 22.5607 12.3671 22.843 12.4905 23.0929L13.5835 25.3329L12.8375 26.0799L6.13047 19.3599L6.91747 18.6669L9.19747 19.8129C9.44737 19.9363 9.72966 19.9783 10.0046 19.9329C10.2796 19.8875 10.5335 19.7571 10.7305 19.5599L16.2505 14.0129C16.4035 13.8608 16.5174 13.6739 16.5823 13.4681C16.6472 13.2623 16.6612 13.0439 16.6232 12.8315C16.5851 12.6191 16.4961 12.4191 16.3638 12.2487C16.2315 12.0782 16.0598 11.9424 15.8635 11.8529L8.91747 8.71994L10.1175 7.51994L18.7575 10.3999C18.9878 10.4723 19.2335 10.4808 19.4683 10.4244C19.703 10.3681 19.9181 10.249 20.0905 10.0799L24.4105 5.75994C24.5434 5.62424 24.7021 5.51643 24.8773 5.44284C25.0524 5.36924 25.2405 5.33133 25.4305 5.33133C25.6204 5.33133 25.8085 5.36924 25.9837 5.44284C26.1588 5.51643 26.3175 5.62424 26.4505 5.75994C26.5895 5.88876 26.6995 6.04574 26.7732 6.22041C26.8468 6.39508 26.8824 6.58344 26.8775 6.77294C26.8847 6.96128 26.8541 7.14915 26.7877 7.32552C26.7212 7.50188 26.6202 7.66319 26.4905 7.79994Z" fill="black"/>
</svg>
