<svg width="33" height="32" viewBox="0 0 33 32" fill="none" xmlns="http://www.w3.org/2000/svg">
<path d="M29.418 10.4274C29.4244 10.3429 29.4244 10.2579 29.418 10.1734L26.752 3.5074C26.6478 3.24372 26.4623 3.02012 26.2224 2.86906C25.9825 2.71801 25.7007 2.64736 25.418 2.6674H6.75195C6.4849 2.66709 6.22392 2.74701 6.00283 2.89678C5.78173 3.04655 5.61072 3.25928 5.51195 3.5074L2.84495 10.1734C2.83849 10.2579 2.83849 10.3429 2.84495 10.4274C2.80076 10.5016 2.76932 10.5828 2.75195 10.6674C2.76675 11.5889 3.02012 12.4909 3.48736 13.2854C3.9546 14.0798 4.61975 14.7396 5.41795 15.2004V28.0004C5.41795 28.1755 5.45247 28.3489 5.51952 28.5107C5.58657 28.6725 5.68485 28.8195 5.80873 28.9433C5.93262 29.0671 6.07969 29.1653 6.24153 29.2322C6.40337 29.2991 6.57682 29.3335 6.75195 29.3334H25.418C25.5931 29.3335 25.7665 29.2991 25.9284 29.2322C26.0902 29.1653 26.2373 29.0671 26.3612 28.9433C26.4851 28.8195 26.5833 28.6725 26.6504 28.5107C26.7174 28.3489 26.752 28.1755 26.752 28.0004V15.2534C27.5578 14.788 28.2278 14.1198 28.6955 13.3153C29.1631 12.5108 29.4122 11.5979 29.418 10.6674C29.4304 10.5879 29.4304 10.5069 29.418 10.4274ZM17.418 26.6674H14.752V21.3334H17.418V26.6674ZM24.085 26.6674H20.085V20.0004C20.085 19.6469 19.9445 19.3078 19.6945 19.0578C19.4445 18.8078 19.1055 18.6674 18.752 18.6674H13.418C13.2429 18.6674 13.0696 18.7019 12.9078 18.7689C12.7461 18.8359 12.5992 18.934 12.4754 19.0578C12.3516 19.1816 12.2534 19.3286 12.1864 19.4903C12.1194 19.652 12.085 19.8253 12.085 20.0004V26.6674H8.08495V16.0004C8.84426 15.9962 9.59391 15.8299 10.2837 15.5125C10.9736 15.1952 11.5877 14.7342 12.085 14.1604C12.5855 14.7278 13.201 15.1822 13.8907 15.4935C14.5803 15.8047 15.3283 15.9657 16.085 15.9657C16.8416 15.9657 17.5896 15.8047 18.2792 15.4935C18.9689 15.1822 19.5844 14.7278 20.085 14.1604C20.5822 14.7342 21.1963 15.1952 21.8862 15.5125C22.576 15.8299 23.3256 15.9962 24.085 16.0004V26.6674ZM24.085 13.3334C23.3778 13.3334 22.6996 13.0525 22.1995 12.5526C21.6993 12.0527 21.4182 11.3746 21.418 10.6674C21.4046 10.3228 21.2583 9.99676 21.0098 9.75767C20.7613 9.51859 20.4298 9.38504 20.085 9.38504C19.7401 9.38504 19.4086 9.51859 19.1601 9.75767C18.9116 9.99676 18.7653 10.3228 18.752 10.6674C18.752 11.3747 18.471 12.0531 17.9708 12.5532C17.4706 13.0534 16.7923 13.3344 16.085 13.3344C15.3776 13.3344 14.6993 13.0534 14.1991 12.5532C13.6989 12.0531 13.418 11.3747 13.418 10.6674C13.4046 10.3228 13.2583 9.99676 13.0098 9.75767C12.7613 9.51859 12.4298 9.38504 12.085 9.38504C11.7401 9.38504 11.4086 9.51859 11.1601 9.75767C10.9116 9.99676 10.7653 10.3228 10.752 10.6674C10.7725 11.1952 10.6359 11.7172 10.3594 12.1672C10.0829 12.6172 9.67904 12.975 9.19897 13.1952C8.7189 13.4155 8.18425 13.4882 7.6628 13.4042C7.14135 13.3202 6.65658 13.0832 6.26995 12.7234C6.01302 12.4851 5.80553 12.1986 5.65934 11.8801C5.51315 11.5617 5.43113 11.2176 5.41795 10.8674L7.65795 5.3334H24.512L26.752 10.8674C26.7014 11.5394 26.3982 12.1674 25.9034 12.6249C25.4086 13.0824 24.7589 13.3355 24.085 13.3334Z" fill="black"/>
</svg>
