<svg width="33" height="32" viewBox="0 0 33 32" fill="none" xmlns="http://www.w3.org/2000/svg">
<path d="M8.15699 14.8434H13.6079M10.8824 12.1179V17.5689M20.4215 16.2061H20.4352M24.5097 13.4806H24.5233M14.2197 6.66699H18.4469C22.024 6.66699 23.8125 6.66699 25.2163 7.34486C26.4523 7.94169 27.4793 8.89789 28.1627 10.0882C28.9388 11.4402 29.0663 13.2242 29.3211 16.7921L29.6564 21.4859C29.8208 23.7875 27.998 25.7451 25.6905 25.7451C24.5105 25.7451 23.3916 25.221 22.6361 24.3146L22.1249 23.701C21.6573 23.1399 21.4235 22.8593 21.1572 22.6326C20.5991 22.1573 19.9235 21.8409 19.2011 21.7163C18.8564 21.657 18.4912 21.657 17.7607 21.657H14.906C14.1755 21.657 13.8103 21.657 13.4657 21.7163C12.7432 21.8409 12.0676 22.1573 11.5094 22.6326C11.2432 22.8593 11.0094 23.1399 10.5417 23.7011L10.0305 24.3146C9.27511 25.221 8.15609 25.7451 6.97612 25.7451C4.66873 25.7451 2.84592 23.7875 3.01031 21.4859L3.34559 16.7921C3.60044 13.2242 3.72787 11.4402 4.50403 10.0882C5.1874 8.89789 6.21435 7.94169 7.45035 7.34486C8.85419 6.66699 10.6427 6.66699 14.2197 6.66699Z" stroke="black" stroke-width="2.66667" stroke-linecap="round" stroke-linejoin="round"/>
</svg>
