<svg width="33" height="32" viewBox="0 0 33 32" fill="none" xmlns="http://www.w3.org/2000/svg">
<path d="M11.7625 16.6457C11.4988 16.6457 11.241 16.7238 11.0217 16.8703C10.8024 17.0169 10.6316 17.2251 10.5306 17.4687C10.4297 17.7123 10.4033 17.9805 10.4548 18.2391C10.5062 18.4977 10.6332 18.7353 10.8197 18.9218C11.0061 19.1082 11.2437 19.2353 11.5024 19.2867C11.761 19.3381 12.0291 19.3117 12.2727 19.2109C12.5164 19.1099 12.7246 18.939 12.8711 18.7197C13.0176 18.5005 13.0958 18.2427 13.0958 17.979C13.0958 17.6254 12.9553 17.2862 12.7053 17.0362C12.4552 16.7861 12.1161 16.6457 11.7625 16.6457ZM11.7625 10.6723C11.4988 10.6723 11.241 10.7505 11.0217 10.897C10.8024 11.0435 10.6316 11.2517 10.5306 11.4954C10.4297 11.739 10.4033 12.0071 10.4548 12.2657C10.5062 12.5244 10.6332 12.762 10.8197 12.9484C11.0061 13.1349 11.2437 13.2619 11.5024 13.3133C11.761 13.3647 12.0291 13.3383 12.2727 13.2375C12.5164 13.1366 12.7246 12.9656 12.8711 12.7464C13.0176 12.5271 13.0958 12.2693 13.0958 12.0056C13.0958 11.652 12.9553 11.3129 12.7053 11.0628C12.4552 10.8128 12.1161 10.6723 11.7625 10.6723ZM16.4158 13.339C16.0622 13.339 15.7231 13.4794 15.473 13.7295C15.223 13.9795 15.0824 14.3187 15.0824 14.6723V16.0057C15.0824 16.3593 15.223 16.6983 15.473 16.9485C15.7231 17.1985 16.0622 17.339 16.4158 17.339C16.7694 17.339 17.1086 17.1985 17.3586 16.9485C17.6087 16.6983 17.7491 16.3593 17.7491 16.0057V14.6723C17.7491 14.3187 17.6087 13.9795 17.3586 13.7295C17.1086 13.4794 16.7694 13.339 16.4158 13.339ZM27.7491 11.4323C27.2892 11.1676 26.7811 10.9972 26.2547 10.9308C25.7282 10.8644 25.1938 10.9034 24.6824 11.0456C24.1504 11.1882 23.6548 11.4427 23.2291 11.7923L7.76247 2.84562C7.55978 2.72861 7.32986 2.66699 7.09581 2.66699C6.86177 2.66699 6.63183 2.72861 6.42914 2.84562C6.22319 2.96139 6.05169 3.12981 5.93221 3.33363C5.81273 3.53746 5.74955 3.76937 5.74914 4.00562V21.5657C4.96229 21.831 4.28003 22.3395 3.80078 23.0177C3.32151 23.6958 3.06999 24.5086 3.08247 25.339C3.0821 26.3817 3.48886 27.3831 4.21609 28.1303C4.94331 28.8775 5.93354 29.3111 6.97581 29.339H7.74914C12.1181 29.3287 16.4066 28.1626 20.1792 25.959C23.9518 23.7554 27.074 20.5927 29.2291 16.7923C29.7268 15.883 29.8522 14.8159 29.5786 13.8161C29.305 12.8161 28.6539 11.9615 27.7624 11.4323H27.7491ZM8.41581 6.31229L21.6024 13.9257C20.1395 16.1086 18.1838 17.917 15.8931 19.2047C13.6025 20.4925 11.0411 21.2235 8.41581 21.339V6.31229ZM26.9091 15.4857C24.9298 18.9731 22.039 21.8566 18.5464 23.8273C15.0539 25.7978 11.0911 26.7813 7.08247 26.6723C6.72886 26.6723 6.38971 26.5318 6.13967 26.2818C5.88962 26.0317 5.74914 25.6926 5.74914 25.339C5.7481 25.1603 5.78297 24.9833 5.85169 24.8183C5.92039 24.6534 6.02155 24.5041 6.14914 24.379C6.39963 24.1375 6.73457 24.0035 7.08247 24.0057H7.76247C11.1861 24.0042 14.5479 23.0938 17.5043 21.3673C20.4607 19.6407 22.9056 17.1601 24.5891 14.179C24.67 14.0327 24.7807 13.905 24.9139 13.8039C25.047 13.7029 25.1998 13.6309 25.3624 13.5923C25.6987 13.5001 26.0576 13.5431 26.3624 13.7123C26.6684 13.8767 26.898 14.1541 27.0027 14.4853C27.1072 14.8165 27.0784 15.1754 26.9224 15.4857H26.9091Z" fill="black"/>
</svg>
